<svg width="65" height="65" viewBox="0 0 65 65" fill="none" xmlns="http://www.w3.org/2000/svg">
<path d="M32.0833 40.8333C34.5139 40.8333 36.5799 39.9826 38.2812 38.2812C39.9826 36.5799 40.8333 34.5139 40.8333 32.0833C40.8333 29.6528 39.9826 27.5868 38.2812 25.8854C36.5799 24.184 34.5139 23.3333 32.0833 23.3333C29.6528 23.3333 27.5868 24.184 25.8854 25.8854C24.184 27.5868 23.3333 29.6528 23.3333 32.0833C23.3333 34.5139 24.184 36.5799 25.8854 38.2812C27.5868 39.9826 29.6528 40.8333 32.0833 40.8333ZM32.0833 46.6667C28.0486 46.6667 24.6094 45.2448 21.7656 42.401C18.9219 39.5573 17.5 36.1181 17.5 32.0833C17.5 28.0486 18.9219 24.6094 21.7656 21.7656C24.6094 18.9219 28.0486 17.5 32.0833 17.5C36.1181 17.5 39.5573 18.9219 42.401 21.7656C45.2448 24.6094 46.6667 28.0486 46.6667 32.0833C46.6667 36.1181 45.2448 39.5573 42.401 42.401C39.5573 45.2448 36.1181 46.6667 32.0833 46.6667ZM11.6667 35H0V29.1667H11.6667V35ZM64.1667 35H52.5V29.1667H64.1667V35ZM29.1667 11.6667V0H35V11.6667H29.1667ZM29.1667 64.1667V52.5H35V64.1667H29.1667ZM15.75 19.6875L8.38542 12.6146L12.5417 8.3125L19.5417 15.6042L15.75 19.6875ZM51.625 55.8542L44.5521 48.4896L48.4167 44.4792L55.7812 51.5521L51.625 55.8542ZM44.4792 15.75L51.5521 8.38542L55.8542 12.5417L48.5625 19.5417L44.4792 15.75ZM8.3125 51.625L15.6771 44.5521L19.6875 48.4167L12.6146 55.7812L8.3125 51.625Z" fill="#1D1B20"/>
</svg>
